<svg width="128" height="128" viewBox="0 0 128 128" fill="none" xmlns="http://www.w3.org/2000/svg">
<g clip-path="url(#clip0_1_14367)">
<rect width="128" height="128" rx="16" fill="#0E8BFF" fill-opacity="0.04"/>
<g clip-path="url(#clip1_1_14367)" filter="url(#filter0_d_1_14367)">
<path d="M94.4734 91.1848C91.9385 91.1793 89.4385 90.6084 87.1557 89.5136C84.8729 88.4188 82.8648 86.8278 81.2775 84.8564C79.6903 82.8851 78.5639 80.5831 77.9806 78.1181C77.3972 75.6531 77.3715 73.0873 77.9053 70.6075C78.7728 66.7157 80.9552 63.2379 84.0843 60.7608C87.2134 58.2838 91.0977 56.959 95.0818 57.0101H105.914C106.515 57.0101 107.093 56.7714 107.519 56.3464C107.945 55.9214 108.186 55.345 108.188 54.7439C108.199 51.1633 108.221 44.5459 108.221 44.5459C108.218 41.5444 107.03 38.6692 104.914 36.5467C102.799 34.4243 99.9275 33.2267 96.926 33.2147C76.6205 33.2147 137.084 33.2147 33.4713 33.2147C32.5697 33.2147 31.7062 32.8566 31.0708 32.2191C30.4353 31.5816 30.08 30.717 30.0829 29.8154C30.0858 28.9138 30.4467 28.0492 31.0862 27.4117C31.7258 26.7742 32.5916 26.4161 33.4932 26.4161L93.5485 26.4161C93.849 26.4161 94.1376 26.2967 94.3508 26.0842C94.564 25.8717 94.6843 25.5835 94.6853 25.283L94.6883 24.3311C94.7084 18.0763 87.6088 13 78.8611 13L29.0038 13C24.7965 13 20.7561 14.6713 17.7716 17.6463C14.787 20.6213 13.1027 24.6563 13.0891 28.8636L12.8632 99.1166C12.8497 103.324 14.5081 107.359 17.4735 110.334C20.439 113.309 24.4686 114.98 28.6759 114.98H96.6631C99.6683 114.98 102.554 113.786 104.686 111.661C106.818 109.536 108.021 106.654 108.031 103.649L108.067 92.318C108.068 92.0174 107.95 91.7292 107.738 91.5167C107.526 91.3042 107.238 91.1848 106.938 91.1848H94.4734Z" fill="#0E8BFF"/>
<path d="M108.158 63.9902H94.5609C91.8562 63.9902 89.2588 65.0647 87.3401 66.9772C85.4215 68.8897 84.3387 71.4836 84.33 74.1883C84.3213 76.8929 85.3874 79.4868 87.2938 81.3993C89.2001 83.3118 91.7906 84.3863 94.4953 84.3863H108.093C109.694 84.1159 111.148 83.2819 112.191 82.035C113.234 80.7881 113.798 79.2106 113.78 77.5876L113.802 70.7889C113.83 69.166 113.276 67.5884 112.241 66.3415C111.206 65.0946 109.758 64.2606 108.158 63.9902V63.9902Z" fill="#0E8BFF"/>
</g>
</g>
<defs>
<filter id="filter0_d_1_14367" x="-28.2415" y="-11.2926" width="183.284" height="182.956" filterUnits="userSpaceOnUse" color-interpolation-filters="sRGB">
<feFlood flood-opacity="0" result="BackgroundImageFix"/>
<feColorMatrix in="SourceAlpha" type="matrix" values="0 0 0 0 0 0 0 0 0 0 0 0 0 0 0 0 0 0 127 0" result="hardAlpha"/>
<feOffset dy="16.195"/>
<feGaussianBlur stdDeviation="20.2438"/>
<feColorMatrix type="matrix" values="0 0 0 0 0.149531 0 0 0 0 0.183606 0 0 0 0 0.3625 0 0 0 0.04 0"/>
<feBlend mode="normal" in2="BackgroundImageFix" result="effect1_dropShadow_1_14367"/>
<feBlend mode="normal" in="SourceGraphic" in2="effect1_dropShadow_1_14367" result="shape"/>
</filter>
<clipPath id="clip0_1_14367">
<rect width="128" height="128" rx="16" fill="white"/>
</clipPath>
<clipPath id="clip1_1_14367">
<rect width="101.981" height="101.981" fill="white" transform="matrix(1 0 -0.00321539 0.999995 12.5742 13)"/>
</clipPath>
</defs>
</svg>
