<svg width="128" height="128" viewBox="0 0 128 128" fill="none" xmlns="http://www.w3.org/2000/svg">
<g clip-path="url(#clip0_1_14374)">
<rect width="128" height="128" rx="16" fill="#0E8BFF" fill-opacity="0.04"/>
<g clip-path="url(#clip1_1_14374)" filter="url(#filter0_d_1_14374)">
<path d="M90.1298 52.8296L14.3321 52.8296C13.3748 52.8296 12.4584 53.2116 11.7846 53.8917C11.1107 54.5717 10.7345 55.494 10.7388 56.4557L10.9491 103.595C10.9534 104.557 11.3378 105.48 12.0177 106.16C12.6977 106.84 13.6174 107.222 14.5747 107.222H90.3724C91.3297 107.222 92.2461 106.84 92.9199 106.16C93.5938 105.48 93.9699 104.557 93.9657 103.595L93.7554 56.4557C93.7511 55.494 93.3667 54.5717 92.6868 53.8917C92.0068 53.2116 91.0871 52.8296 90.1298 52.8296ZM21.6156 67.3341C20.9017 67.3341 20.2029 67.1215 19.6076 66.723C19.0123 66.3246 18.5471 65.7583 18.271 65.0957C17.9948 64.4331 17.9201 63.704 18.0562 63.0006C18.1923 62.2972 18.5332 61.6511 19.0357 61.1439C19.5383 60.6368 20.1799 60.2915 20.8794 60.1515C21.5789 60.0116 22.305 60.0834 22.9657 60.3579C23.6265 60.6323 24.1923 61.0971 24.5916 61.6934C24.9908 62.2897 25.2056 62.9908 25.2088 63.708C25.2131 64.6697 24.837 65.592 24.1631 66.2721C23.4892 66.9521 22.5729 67.3341 21.6156 67.3341ZM52.4008 90.904C50.2591 90.904 48.1628 90.266 46.3767 89.0707C44.5907 87.8753 43.1953 86.1764 42.3668 84.1886C41.5384 82.2008 41.3142 80.0135 41.7226 77.9033C42.131 75.7931 43.1536 73.8548 44.6612 72.3334C46.1688 70.812 48.0936 69.776 50.1922 69.3562C52.2908 68.9365 54.4689 69.1519 56.4512 69.9753C58.4335 70.7986 60.1308 72.1929 61.3286 73.9819C62.5264 75.7708 63.1709 77.8741 63.1805 80.0256C63.1934 82.9107 62.0649 85.6777 60.0433 87.7178C58.0217 89.7579 55.2726 90.904 52.4008 90.904ZM83.1212 99.9694C82.4074 99.9694 81.7086 99.7567 81.1132 99.3583C80.5179 98.9598 80.0527 98.3935 79.7766 97.7309C79.5004 97.0683 79.4257 96.3392 79.5618 95.6358C79.698 94.9324 80.0389 94.2863 80.5414 93.7792C81.0439 93.272 81.6855 92.9267 82.385 92.7868C83.0846 92.6469 83.8106 92.7187 84.4714 92.9931C85.1321 93.2676 85.6979 93.7323 86.0972 94.3287C86.4965 94.925 86.7113 95.626 86.7145 96.3432C86.7188 97.3049 86.3426 98.2273 85.6687 98.9073C84.9949 99.5873 84.0785 99.9694 83.1212 99.9694Z" fill="#0E8BFF"/>
</g>
<g clip-path="url(#clip2_1_14374)" filter="url(#filter1_d_1_14374)">
<path d="M114.461 19.6948L48.1853 19.6948C47.3483 19.6948 46.5445 20.0292 45.9507 20.6244C45.3569 21.2195 45.0218 22.0267 45.0191 22.8684L44.8864 64.1253C44.8837 64.967 45.2136 65.7742 45.8036 66.3693C46.3935 66.9645 47.1952 67.2989 48.0322 67.2989H114.308C115.145 67.2989 115.949 66.9645 116.543 66.3693C117.136 65.7742 117.472 64.967 117.474 64.1253L117.607 22.8684C117.61 22.0267 117.28 21.2195 116.69 20.6244C116.1 20.0292 115.298 19.6948 114.461 19.6948ZM54.4565 32.3892C53.8323 32.3892 53.2227 32.2031 52.7048 31.8544C52.1869 31.5057 51.784 31.01 51.547 30.4301C51.31 29.8502 51.2495 29.2121 51.3733 28.5965C51.4971 27.9809 51.7995 27.4154 52.2423 26.9716C52.6851 26.5277 53.2484 26.2255 53.861 26.103C54.4736 25.9806 55.1079 26.0434 55.6838 26.2836C56.2597 26.5238 56.7513 26.9306 57.0964 27.4525C57.4415 27.9744 57.6247 28.588 57.6227 29.2156C57.6199 30.0573 57.2848 30.8645 56.6911 31.4597C56.0973 32.0549 55.2935 32.3892 54.4565 32.3892ZM81.2161 53.0176C79.3435 53.0176 77.5147 52.4593 75.9611 51.4131C74.4075 50.3669 73.1987 48.88 72.4877 47.1403C71.7767 45.4006 71.5953 43.4863 71.9666 41.6394C72.3379 39.7926 73.2451 38.0961 74.5735 36.7646C75.9019 35.4331 77.5918 34.5263 79.4296 34.159C81.2674 33.7916 83.1705 33.9802 84.8982 34.7008C86.6259 35.4214 88.1007 36.6417 89.136 38.2074C90.1713 39.7731 90.7207 41.6138 90.7147 43.4968C90.7065 46.0219 89.7012 48.4436 87.9199 50.2291C86.1386 52.0146 83.7271 53.0176 81.2161 53.0176ZM108.016 60.9517C107.392 60.9517 106.783 60.7655 106.265 60.4168C105.747 60.0681 105.344 59.5724 105.107 58.9925C104.87 58.4126 104.81 57.7745 104.933 57.1589C105.057 56.5433 105.359 55.9778 105.802 55.534C106.245 55.0901 106.808 54.7879 107.421 54.6654C108.034 54.543 108.668 54.6058 109.244 54.846C109.82 55.0862 110.311 55.493 110.656 56.0149C111.002 56.5368 111.185 57.1504 111.183 57.7781C111.18 58.6197 110.845 59.427 110.251 60.0221C109.657 60.6173 108.854 60.9517 108.016 60.9517Z" fill="#0E8BFF"/>
</g>
</g>
<defs>
<filter id="filter0_d_1_14374" x="-19.3428" y="20.3247" width="143.389" height="143.401" filterUnits="userSpaceOnUse" color-interpolation-filters="sRGB">
<feFlood flood-opacity="0" result="BackgroundImageFix"/>
<feColorMatrix in="SourceAlpha" type="matrix" values="0 0 0 0 0 0 0 0 0 0 0 0 0 0 0 0 0 0 127 0" result="hardAlpha"/>
<feOffset dy="12"/>
<feGaussianBlur stdDeviation="15"/>
<feColorMatrix type="matrix" values="0 0 0 0 0.149531 0 0 0 0 0.183606 0 0 0 0 0.3625 0 0 0 0.04 0"/>
<feBlend mode="normal" in2="BackgroundImageFix" result="effect1_dropShadow_1_14374"/>
<feBlend mode="normal" in="SourceGraphic" in2="effect1_dropShadow_1_14374" result="shape"/>
</filter>
<filter id="filter1_d_1_14374" x="14.835" y="-11" width="132.822" height="132.993" filterUnits="userSpaceOnUse" color-interpolation-filters="sRGB">
<feFlood flood-opacity="0" result="BackgroundImageFix"/>
<feColorMatrix in="SourceAlpha" type="matrix" values="0 0 0 0 0 0 0 0 0 0 0 0 0 0 0 0 0 0 127 0" result="hardAlpha"/>
<feOffset dy="12"/>
<feGaussianBlur stdDeviation="15"/>
<feColorMatrix type="matrix" values="0 0 0 0 0.149531 0 0 0 0 0.183606 0 0 0 0 0.3625 0 0 0 0.04 0"/>
<feBlend mode="normal" in2="BackgroundImageFix" result="effect1_dropShadow_1_14374"/>
<feBlend mode="normal" in="SourceGraphic" in2="effect1_dropShadow_1_14374" result="shape"/>
</filter>
<clipPath id="clip0_1_14374">
<rect width="128" height="128" rx="16" fill="white"/>
</clipPath>
<clipPath id="clip1_1_14374">
<rect width="83.0165" height="83.402" fill="white" transform="matrix(1 0 0.00446086 0.99999 10.6572 38.3247)"/>
</clipPath>
<clipPath id="clip2_1_14374">
<rect width="72.5878" height="72.9932" fill="white" transform="matrix(1 0 -0.00321541 0.999995 45.0693 7)"/>
</clipPath>
</defs>
</svg>
