<svg width="128" height="128" viewBox="0 0 128 128" fill="none" xmlns="http://www.w3.org/2000/svg">
<g clip-path="url(#clip0_1_14348)">
<rect width="128" height="128" rx="16" fill="#0E8BFF" fill-opacity="0.04"/>
<g filter="url(#filter0_d_1_14348)">
<path d="M36.7617 102.038H82.4741C84.1068 102.038 85.6868 101.456 86.9341 100.396C88.1815 99.3361 89.0157 97.8657 89.2889 96.2457L101.439 24.367C101.713 22.7478 102.548 21.2786 103.795 20.2193C105.043 19.1601 106.622 18.5792 108.254 18.5796H112.788" stroke="#0E8BFF" stroke-width="5.83177" stroke-linecap="round" stroke-linejoin="round"/>
<path d="M43.4071 49.5067C41.1344 49.9233 38.954 48.4192 38.5372 46.1462L34.3857 23.5131C33.9688 21.2404 35.4733 19.06 37.746 18.6432L78.8971 11.095C81.1696 10.6781 83.3501 12.1826 83.7672 14.4553L87.9187 37.0885C88.3353 39.3612 86.8312 41.5415 84.5583 41.9584L43.4071 49.5067Z" fill="#0E8BFF"/>
<path d="M34.8711 43.9234C32.568 43.7379 30.8513 41.7204 31.0369 39.4172L32.8847 16.4808C33.0703 14.1777 35.0878 12.461 37.391 12.6465L79.0935 16.0063C81.3965 16.1918 83.1133 18.2094 82.9278 20.5125L81.0799 43.4489C80.8944 45.7521 78.8767 47.4687 76.5737 47.2832L34.8711 43.9234Z" fill="#0E8BFF"/>
<path d="M37.0547 16.8168L62.0762 18.8326L61.7402 23.0029L36.7187 20.987L37.0547 16.8168ZM36.5507 23.0722L49.0615 24.0801L48.7255 28.2503L36.2147 27.2424L36.5507 23.0722ZM76.7981 18.4447L78.8832 18.6127L78.5472 22.7829L76.4621 22.615L76.7981 18.4447ZM76.2101 25.7427L78.2953 25.9106L77.9593 30.0809L75.8742 29.9129L76.2101 25.7427ZM75.6222 33.0406L77.7073 33.2086L77.3713 37.3788L75.2862 37.2109L75.6222 33.0406ZM75.0342 40.3385L77.1193 40.5065L76.7834 44.6768L74.6982 44.5088L75.0342 40.3385Z" fill="white"/>
<path d="M45.4007 112.471C45.7424 112.471 46.0765 112.573 46.3607 112.764C46.6448 112.955 46.8663 113.227 46.997 113.545C47.1278 113.862 47.162 114.212 47.0954 114.549C47.0287 114.887 46.8641 115.197 46.6225 115.44C46.3808 115.683 46.073 115.849 45.7378 115.916C45.4026 115.983 45.0552 115.948 44.7395 115.817C44.4238 115.685 44.1539 115.462 43.964 115.176C43.7742 114.89 43.6729 114.554 43.6729 114.21C43.6729 113.749 43.8549 113.307 44.1789 112.981C44.503 112.654 44.9425 112.471 45.4007 112.471Z" fill="white" stroke="#0E8BFF" stroke-width="5.83177" stroke-linecap="round" stroke-linejoin="round"/>
<path d="M79.9583 112.471C80.3001 112.471 80.6341 112.573 80.9183 112.764C81.2024 112.955 81.4239 113.227 81.5547 113.545C81.6854 113.862 81.7196 114.212 81.653 114.549C81.5863 114.887 81.4217 115.197 81.1801 115.44C80.9385 115.683 80.6306 115.849 80.2954 115.916C79.9602 115.983 79.6128 115.948 79.2971 115.817C78.9814 115.685 78.7115 115.462 78.5217 115.176C78.3318 114.89 78.2305 114.554 78.2305 114.21C78.2305 113.749 78.4125 113.307 78.7365 112.981C79.0606 112.654 79.5001 112.471 79.9583 112.471Z" fill="white"/>
<path d="M79.9583 112.471C80.3001 112.471 80.6341 112.573 80.9183 112.764C81.2024 112.955 81.4239 113.227 81.5547 113.545C81.6854 113.862 81.7196 114.212 81.653 114.549C81.5863 114.887 81.4217 115.197 81.1801 115.44C80.9385 115.683 80.6306 115.849 80.2954 115.916C79.9602 115.983 79.6128 115.948 79.2971 115.817C78.9814 115.685 78.7115 115.462 78.5217 115.176C78.3318 114.89 78.2305 114.554 78.2305 114.21C78.2305 113.749 78.4125 113.307 78.7365 112.981C79.0606 112.654 79.5001 112.471 79.9583 112.471" stroke="#0E8BFF" stroke-width="5.83177" stroke-linecap="round" stroke-linejoin="round"/>
<path d="M91.8364 81.1711H36.2179C33.1358 81.1708 30.1422 80.1337 27.7128 78.2247C25.2834 76.3158 23.5577 73.6444 22.8097 70.6351L16.1287 43.7385C16.0012 43.2256 15.9916 42.6901 16.1006 42.1729C16.2096 41.6556 16.4343 41.1702 16.7577 40.7535C17.0811 40.3368 17.4947 39.9998 17.9669 39.7682C18.4392 39.5365 18.9577 39.4162 19.483 39.4165H98.8907" fill="#0E8BFF"/>
<path d="M91.8364 81.1711H36.2179C33.1358 81.1708 30.1422 80.1337 27.7128 78.2247C25.2834 76.3158 23.5577 73.6444 22.8097 70.6351L16.1287 43.7385C16.0012 43.2256 15.9916 42.6901 16.1006 42.1729C16.2096 41.6556 16.4343 41.1702 16.7577 40.7535C17.0811 40.3368 17.4947 39.9998 17.9669 39.7682C18.4392 39.5365 18.9577 39.4162 19.483 39.4165H98.8907" stroke="#0E8BFF" stroke-width="5.83177" stroke-linecap="round" stroke-linejoin="round"/>
</g>
</g>
<defs>
<filter id="filter0_d_1_14348" x="-11.8839" y="-20.996" width="152.581" height="174.852" filterUnits="userSpaceOnUse" color-interpolation-filters="sRGB">
<feFlood flood-opacity="0" result="BackgroundImageFix"/>
<feColorMatrix in="SourceAlpha" type="matrix" values="0 0 0 0 0 0 0 0 0 0 0 0 0 0 0 0 0 0 127 0" result="hardAlpha"/>
<feOffset dy="9.99732"/>
<feGaussianBlur stdDeviation="12.4966"/>
<feColorMatrix type="matrix" values="0 0 0 0 0.149531 0 0 0 0 0.183606 0 0 0 0 0.3625 0 0 0 0.04 0"/>
<feBlend mode="normal" in2="BackgroundImageFix" result="effect1_dropShadow_1_14348"/>
<feBlend mode="normal" in="SourceGraphic" in2="effect1_dropShadow_1_14348" result="shape"/>
</filter>
<clipPath id="clip0_1_14348">
<rect width="128" height="128" rx="16" fill="white"/>
</clipPath>
</defs>
</svg>
