<svg width="32" height="28" viewBox="0 0 32 28" fill="none" xmlns="http://www.w3.org/2000/svg">
<path d="M11.1436 22.5709H22.4816C22.8866 22.571 23.2785 22.4276 23.5878 22.1663C23.8972 21.905 24.1041 21.5426 24.1719 21.1433L27.1855 3.42649C27.2535 3.0274 27.4605 2.66525 27.7699 2.40417C28.0793 2.14309 28.471 1.99991 28.8758 2H30.0003" stroke="#26395C" stroke-width="2.41424" stroke-linecap="round" stroke-linejoin="round"/>
<path d="M13.286 25.1426C13.3707 25.1426 13.4536 25.1677 13.5241 25.2148C13.5946 25.2619 13.6495 25.3289 13.6819 25.4072C13.7144 25.4855 13.7228 25.5717 13.7063 25.6548C13.6898 25.738 13.649 25.8144 13.589 25.8743C13.5291 25.9342 13.4527 25.9751 13.3696 25.9916C13.2865 26.0081 13.2003 25.9997 13.122 25.9672C13.0437 25.9348 12.9767 25.8798 12.9296 25.8093C12.8826 25.7389 12.8574 25.656 12.8574 25.5712C12.8574 25.4575 12.9026 25.3485 12.9829 25.2681C13.0633 25.1877 13.1723 25.1426 13.286 25.1426Z" stroke="#26395C" stroke-width="2.41424" stroke-linecap="round" stroke-linejoin="round"/>
<path d="M21.8573 25.1426C21.942 25.1426 22.0249 25.1677 22.0954 25.2148C22.1658 25.2619 22.2208 25.3289 22.2532 25.4072C22.2856 25.4855 22.2941 25.5717 22.2776 25.6548C22.2611 25.738 22.2202 25.8144 22.1603 25.8743C22.1004 25.9342 22.024 25.9751 21.9409 25.9916C21.8577 26.0081 21.7716 25.9997 21.6933 25.9672C21.615 25.9348 21.548 25.8798 21.5009 25.8093C21.4538 25.7389 21.4287 25.656 21.4287 25.5712C21.4287 25.4575 21.4739 25.3485 21.5542 25.2681C21.6346 25.1877 21.7436 25.1426 21.8573 25.1426" stroke="#26395C" stroke-width="2.41424" stroke-linecap="round" stroke-linejoin="round"/>
<path d="M24.8034 17.4275H11.0084C10.2439 17.4274 9.50139 17.1718 8.89883 16.7013C8.29627 16.2307 7.86823 15.5723 7.68272 14.8306L6.02562 8.20104C5.994 8.07461 5.99162 7.94263 6.01865 7.81514C6.04569 7.68765 6.10143 7.568 6.18165 7.46529C6.26186 7.36259 6.36443 7.27952 6.48156 7.22242C6.59869 7.16531 6.72729 7.13567 6.8576 7.13574H26.5531" stroke="#26395C" stroke-width="2.41424" stroke-linecap="round" stroke-linejoin="round"/>
<circle cx="7" cy="7" r="7" fill="#0E8BFF"/>
<path d="M9.1775 8.05046C9.1775 8.25229 9.125 8.44037 9.02 8.61468C8.915 8.78899 8.7675 8.93807 8.5775 9.06193C8.3925 9.18578 8.17 9.2844 7.91 9.3578C7.655 9.42661 7.375 9.46101 7.07 9.46101C6.665 9.46101 6.28 9.3945 5.915 9.26147C5.55 9.12844 5.245 8.94495 5 8.71101L5.69 8.12615C5.9 8.31881 6.1075 8.45413 6.3125 8.53211C6.5175 8.61009 6.7675 8.64908 7.0625 8.64908C7.3825 8.64908 7.6425 8.58716 7.8425 8.4633C8.0425 8.33945 8.1425 8.1789 8.1425 7.98165C8.1425 7.80275 8.05 7.66055 7.865 7.55505C7.685 7.44954 7.445 7.39679 7.145 7.39679H6.665V6.64679H7.04C7.31 6.64679 7.535 6.58028 7.715 6.44725C7.895 6.31422 7.985 6.14679 7.985 5.94495C7.985 5.76605 7.895 5.61697 7.715 5.49771C7.54 5.37844 7.3175 5.31881 7.0475 5.31881C6.7925 5.31881 6.5675 5.36239 6.3725 5.44954C6.1775 5.53211 5.9675 5.67661 5.7425 5.88303L5.045 5.29817C5.3 5.05046 5.6075 4.8555 5.9675 4.7133C6.3275 4.5711 6.7 4.5 7.085 4.5C7.365 4.5 7.6225 4.5344 7.8575 4.60321C8.0975 4.66743 8.3025 4.75917 8.4725 4.87844C8.6425 4.99771 8.775 5.13991 8.87 5.30505C8.965 5.47018 9.0125 5.65138 9.0125 5.84862C9.0125 6.08716 8.9425 6.30505 8.8025 6.50229C8.6625 6.69495 8.4725 6.84862 8.2325 6.9633C8.5175 7.05505 8.745 7.19725 8.915 7.38991C9.09 7.58257 9.1775 7.80275 9.1775 8.05046Z" fill="white"/>
</svg>
