<svg width="167" height="79" viewBox="0 0 167 79" fill="none" xmlns="http://www.w3.org/2000/svg">
<path d="M19.8636 48.1348C19.6342 49.0199 19.2572 49.9376 18.7328 50.8882C18.2411 51.8388 17.6183 52.7402 16.8644 53.5924C15.7499 54.8708 14.5208 55.723 13.1769 56.1491C11.8329 56.5752 10.6202 56.7883 9.53847 56.7883C6.29342 56.7883 3.88422 55.5427 2.31087 53.0516C0.770289 50.5604 0 46.9712 0 42.2839C0 39.8256 0.213059 37.5311 0.639176 35.4005C1.09807 33.2699 1.70447 31.4179 2.45837 29.8446C3.21227 28.2384 4.09728 26.9765 5.11341 26.0587C6.16231 25.1409 7.27677 24.682 8.45679 24.682H9.4893C10.0793 24.682 10.571 24.7639 10.9643 24.9278C11.3904 25.0917 11.7838 25.3048 12.1443 25.567C12.5377 25.7965 12.931 26.0587 13.3244 26.3537C13.7177 26.6159 14.2094 26.8781 14.7994 27.1404C15.7827 27.5665 16.4383 28.3532 16.7661 29.5004C17.0939 30.6149 17.2577 31.8113 17.2577 33.0896C17.2577 33.5485 17.2414 34.0238 17.2086 34.5155C17.2086 35.0072 17.1266 35.466 16.9627 35.8922C16.7989 36.2855 16.5366 36.6297 16.1761 36.9247C15.8155 37.2197 15.2911 37.4 14.6027 37.4655C13.6521 37.4655 12.9966 37.1377 12.636 36.4822C12.2755 35.8266 12.0952 35.1219 12.0952 34.368C12.0952 33.9419 12.128 33.4338 12.1935 32.8438C12.2591 32.221 12.2918 31.5982 12.2918 30.9754C12.2918 30.156 12.1607 29.4348 11.8985 28.8121C11.6691 28.1893 11.1774 27.8779 10.4235 27.8779C9.21069 27.8779 8.21095 28.3204 7.42427 29.2054C6.67037 30.0576 6.06398 31.1557 5.60508 32.4996C5.17896 33.8435 4.86757 35.3349 4.6709 36.9738C4.50701 38.6128 4.42506 40.2025 4.42506 41.7431C4.42506 43.3164 4.45784 44.7751 4.5234 46.119C4.62173 47.4301 4.83479 48.6101 5.16257 49.659C5.49036 50.7079 5.96564 51.6257 6.58843 52.4124C7.21122 53.1663 8.07984 53.7891 9.1943 54.2808C9.6532 54.4774 10.1613 54.5758 10.7185 54.5758C11.5379 54.5758 12.3082 54.3955 13.0294 54.0349C13.7833 53.6416 14.4388 53.1335 14.9961 52.5107C15.5533 51.888 15.9958 51.1832 16.3236 50.3965C16.6514 49.5771 16.8152 48.7412 16.8152 47.889C16.8152 47.0368 16.9627 46.2829 17.2577 45.6273C17.5855 44.9717 18.11 44.644 18.8311 44.644C19.3556 44.644 19.6997 44.8078 19.8636 45.1356C20.0275 45.4634 20.1095 45.8404 20.1095 46.2665C20.1095 47.0204 20.0275 47.6432 19.8636 48.1348Z" fill="#0E8BFF"/>
<path d="M40.3875 48.3315C40.3548 48.7904 40.2073 49.446 39.945 50.2982C39.7156 51.1177 39.355 51.9371 38.8634 52.7566C38.4045 53.5433 37.7981 54.248 37.0442 54.8708C36.323 55.4608 35.438 55.7558 34.3891 55.7558C33.373 55.7558 32.5535 55.4608 31.9308 54.8708C31.3407 54.2808 30.8818 53.4777 30.5541 52.4616C30.2591 51.4127 30.0624 50.1671 29.9641 48.7248C29.8985 47.2826 29.8657 45.7093 29.8657 44.0048C29.8657 43.7098 29.8657 43.3492 29.8657 42.9231C29.8657 42.4642 29.8821 42.0709 29.9149 41.7431C29.5216 42.4642 29.1282 43.382 28.7349 44.4965C28.3415 45.5781 27.981 46.7418 27.6532 47.9873C27.3582 49.2329 27.1124 50.5113 26.9157 51.8224C26.719 53.1007 26.6043 54.3135 26.5715 55.4608C26.2437 55.5263 25.8832 55.6083 25.4898 55.7066C25.1293 55.805 24.7031 55.8541 24.2115 55.8541C24.0148 55.8541 23.7854 55.8377 23.5231 55.805C23.2609 55.7722 22.9987 55.7066 22.7365 55.6083C22.4742 55.5099 22.2448 55.3788 22.0481 55.2149C21.8842 55.0183 21.8023 54.7724 21.8023 54.4774C21.8023 54.4119 21.8514 54.2644 21.9498 54.0349C22.0809 53.8055 22.1464 53.3466 22.1464 52.6582V24.387C22.1464 23.9281 22.0809 23.6167 21.9498 23.4528C21.8514 23.2889 21.8023 23.0923 21.8023 22.8628C21.8023 22.7317 21.917 22.6334 22.1464 22.5678C22.3759 22.4695 22.6381 22.4039 22.9331 22.3711C23.2281 22.3056 23.5231 22.2728 23.8181 22.2728C24.1459 22.24 24.4081 22.2236 24.6048 22.2236C25.457 22.2236 26.3257 22.4039 27.2107 22.7645C27.0468 23.6495 26.8829 24.8295 26.719 26.3045C26.5879 27.7468 26.4568 29.2546 26.3257 30.8279C26.1946 32.3685 26.0962 33.8599 26.0307 35.3022C25.9651 36.7116 25.9323 37.8097 25.9323 38.5964C25.9323 38.6947 25.9323 38.8258 25.9323 38.9897C25.9323 39.1208 25.9159 39.4978 25.8832 40.1206C25.8832 40.7106 25.8668 41.6447 25.834 42.9231C25.834 44.2015 25.8176 46.0043 25.7848 48.3315C25.7848 48.2987 25.8504 47.9873 25.9815 47.3973C26.1454 46.8073 26.3421 46.0698 26.5715 45.1848C26.801 44.2998 27.0632 43.3492 27.3582 42.3331C27.686 41.317 28.0138 40.3828 28.3415 39.5306C28.7021 38.6455 29.0627 37.9244 29.4232 37.3672C29.7838 36.7772 30.128 36.4822 30.4557 36.4822C30.8163 36.4822 31.308 36.5641 31.9308 36.728C32.5863 36.8591 32.996 37.105 33.1599 37.4655C33.291 37.8589 33.4222 38.1375 33.5533 38.3014C33.7172 38.4653 33.8483 38.5964 33.9466 38.6947C34.0777 38.793 34.1761 38.8914 34.2416 38.9897C34.34 39.088 34.3891 39.2355 34.3891 39.4322C34.3563 39.5306 34.2744 39.8583 34.1433 40.4156C34.0449 40.9728 33.9302 41.6775 33.7991 42.5298C33.7008 43.3492 33.6024 44.267 33.5041 45.2831C33.4058 46.2665 33.3566 47.2498 33.3566 48.2332C33.3566 49.5443 33.4713 50.6752 33.7008 51.6257C33.9302 52.5763 34.3727 53.0516 35.0283 53.0516C35.6839 53.0516 36.2247 52.8549 36.6508 52.4616C37.0769 52.0682 37.4211 51.5766 37.6833 50.9865C37.9783 50.3965 38.1914 49.7738 38.3225 49.1182C38.4864 48.4298 38.6175 47.8234 38.7159 47.299C38.8797 46.6107 39.1256 46.2665 39.4534 46.2665C39.8139 46.2665 40.0598 46.3976 40.1909 46.6598C40.3548 46.922 40.4367 47.2662 40.4367 47.6923L40.3875 48.3315Z" fill="#0E8BFF"/>
<path d="M44.6494 32.5488C44.6494 32.7782 44.5346 32.9749 44.3052 33.1388C44.0757 33.2699 43.8135 33.3682 43.5185 33.4338C43.2563 33.4994 42.994 33.5485 42.7318 33.5813C42.4696 33.6141 42.3057 33.6305 42.2402 33.6305C41.5518 33.6305 40.8635 33.4338 40.1751 33.0405C39.5196 32.6471 38.9132 32.0243 38.3559 31.1721C38.2904 31.0738 38.192 30.9426 38.0609 30.7788C37.9298 30.6149 37.8643 30.5001 37.8643 30.4346C37.8643 30.2707 37.979 30.1232 38.2084 29.9921C38.4707 29.861 38.7493 29.7299 39.0443 29.5987C39.3721 29.4676 39.6671 29.3693 39.9293 29.3037C40.2243 29.2382 40.421 29.2054 40.5193 29.2054C41.1749 29.2054 41.814 29.3693 42.4368 29.6971C43.0924 30.0249 43.6168 30.6313 44.0102 31.5163C44.0757 31.6146 44.1905 31.7949 44.3543 32.0571C44.551 32.2866 44.6494 32.4504 44.6494 32.5488ZM49.6644 47.4465C49.5661 48.2332 49.3858 49.0526 49.1236 49.9049C48.8614 50.7571 48.4844 51.5602 47.9927 52.3141C47.5338 53.0352 46.9438 53.6416 46.2227 54.1333C45.5016 54.5922 44.6166 54.8216 43.5677 54.8216C42.7482 54.8216 41.9124 54.543 41.0601 53.9858C40.2079 53.3958 39.6179 52.6255 39.2901 51.6749C38.9951 50.7243 38.8476 49.8065 38.8476 48.9215C38.8476 48.6593 38.864 48.266 38.8968 47.7415C38.9295 47.217 38.9459 46.5779 38.9459 45.824V40.4156C38.9459 40.1533 38.9295 39.8747 38.8968 39.5797C38.8968 39.2847 38.864 39.0061 38.7984 38.7439C38.7657 38.6128 38.7001 38.4653 38.6018 38.3014C38.5362 38.1375 38.5034 38.0228 38.5034 37.9572C38.5034 37.8261 38.5854 37.7277 38.7493 37.6622C38.9132 37.5639 39.0934 37.4983 39.2901 37.4655C39.4868 37.4327 39.6671 37.4164 39.831 37.4164C40.0276 37.4164 40.126 37.4164 40.126 37.4164C40.2243 37.4164 40.4537 37.4327 40.8143 37.4655C41.1749 37.4655 41.5518 37.5147 41.9451 37.613C42.3385 37.7114 42.6827 37.8752 42.9777 38.1047C43.3054 38.3014 43.4693 38.5964 43.4693 38.9897C43.5021 39.088 43.4366 39.2683 43.2727 39.5306C43.1416 39.7928 43.0104 40.2517 42.8793 40.9072C42.8465 41.1695 42.8138 41.4153 42.781 41.6447C42.7482 41.8414 42.7154 42.0709 42.6827 42.3331C42.6499 42.5953 42.6171 42.9231 42.5843 43.3164C42.5515 43.677 42.5188 44.1523 42.486 44.7423V47.6923C42.486 48.2168 42.5024 48.7576 42.5352 49.3149C42.5679 49.8393 42.6335 50.331 42.7318 50.7899C42.8629 51.216 43.0596 51.5766 43.3218 51.8716C43.5841 52.1338 43.9282 52.2649 44.3543 52.2649C44.9771 52.2649 45.4688 52.0846 45.8294 51.7241C46.1899 51.3635 46.4685 51.0521 46.6652 50.7899C47.0258 50.2982 47.3044 49.6918 47.5011 48.9707C47.6977 48.2168 47.878 47.4465 48.0419 46.6598L48.1402 46.1681C48.2386 45.6765 48.5336 45.4306 49.0252 45.4306C49.5169 45.4306 49.7628 45.7748 49.7628 46.4632V46.709L49.6644 47.4465Z" fill="#0E8BFF"/>
<path d="M58.1262 53.8874C58.1262 54.2808 57.9787 54.6249 57.6837 54.9199C57.4215 55.2149 57.0773 55.4772 56.6512 55.7066C56.2578 55.9361 55.8317 56.1 55.3728 56.1983C54.9467 56.3294 54.5862 56.395 54.2911 56.395C53.7339 56.395 53.1111 56.3294 52.4228 56.1983C51.7672 56.1 51.21 55.8705 50.7511 55.5099C50.2267 55.0838 49.7841 54.4119 49.4236 53.4941C49.0958 52.5435 48.8336 51.4291 48.6369 50.1507C48.473 48.8396 48.3583 47.3973 48.2927 45.824C48.2272 44.2178 48.1944 42.5461 48.1944 40.8089C48.1944 40.0878 48.2108 39.2847 48.2436 38.3997C48.3091 37.5147 48.3747 36.5969 48.4402 35.6463C48.5058 34.663 48.5877 33.696 48.6861 32.7455C48.7844 31.7621 48.8827 30.8279 48.9811 29.9429C49.0794 29.3201 49.1941 28.6482 49.3252 27.927C49.4564 27.2059 49.5875 26.5176 49.7186 25.862C49.8825 25.2065 50.0628 24.6164 50.2594 24.092C50.4561 23.5675 50.6692 23.1906 50.8986 22.9611C51.1608 22.6989 51.505 22.535 51.9311 22.4695C52.39 22.3711 52.7997 22.322 53.1603 22.322C53.9142 22.322 54.5206 22.5186 54.9795 22.912C55.4384 23.3053 55.7826 23.8462 56.012 24.5345C56.2742 25.1901 56.4381 25.9604 56.5037 26.8454C56.602 27.6976 56.6512 28.6154 56.6512 29.5987C56.6512 31.1065 56.602 32.7455 56.5037 34.5155C56.4053 36.2527 56.1923 38.0064 55.8645 39.7764C55.5695 41.5464 55.127 43.2673 54.537 44.939C53.9798 46.6107 53.2259 48.1348 52.2753 49.5115C52.3081 49.9704 52.3572 50.5113 52.4228 51.1341C52.5211 51.7241 52.6522 52.2813 52.8161 52.8057C52.98 53.3302 53.1931 53.7727 53.4553 54.1333C53.7175 54.4938 54.0617 54.6741 54.4878 54.6741C54.8812 54.6741 55.1926 54.5922 55.422 54.4283C55.6515 54.2316 55.8481 54.0185 56.012 53.7891C56.2087 53.5596 56.389 53.363 56.5528 53.1991C56.7495 53.0024 56.9954 52.9041 57.2904 52.9041C57.6181 52.9041 57.8312 53.0024 57.9295 53.1991C58.0606 53.3958 58.1262 53.6252 58.1262 53.8874ZM54.4387 30.7788C54.4387 30.451 54.4223 30.0576 54.3895 29.5987C54.3895 29.1398 54.3403 28.6973 54.242 28.2712C54.1764 27.8123 54.0781 27.4354 53.947 27.1404C53.8159 26.8126 53.6356 26.6487 53.4061 26.6487C53.0784 26.6487 52.8161 27.1076 52.6195 28.0254C52.4228 28.9432 52.2589 30.156 52.1278 31.6638C52.0294 33.1388 51.9475 34.8269 51.882 36.728C51.8492 38.5964 51.8328 40.4975 51.8328 42.4314C51.8328 42.9887 51.8328 43.5787 51.8328 44.2015C51.8328 44.7915 51.8656 45.3159 51.9311 45.7748C53.0128 43.1853 53.7011 40.6778 53.9961 38.2522C54.2912 35.8266 54.4387 33.3355 54.4387 30.7788Z" fill="#0E8BFF"/>
<path d="M67.9693 53.8874C67.9693 54.2808 67.8218 54.6249 67.5268 54.9199C67.2646 55.2149 66.9204 55.4772 66.4943 55.7066C66.1009 55.9361 65.6748 56.1 65.2159 56.1983C64.7898 56.3294 64.4292 56.395 64.1342 56.395C63.577 56.395 62.9542 56.3294 62.2659 56.1983C61.6103 56.1 61.0531 55.8705 60.5942 55.5099C60.0697 55.0838 59.6272 54.4119 59.2667 53.4941C58.9389 52.5435 58.6767 51.4291 58.48 50.1507C58.3161 48.8396 58.2014 47.3973 58.1358 45.824C58.0703 44.2178 58.0375 42.5461 58.0375 40.8089C58.0375 40.0878 58.0539 39.2847 58.0866 38.3997C58.1522 37.5147 58.2178 36.5969 58.2833 35.6463C58.3489 34.663 58.4308 33.696 58.5291 32.7455C58.6275 31.7621 58.7258 30.8279 58.8242 29.9429C58.9225 29.3201 59.0372 28.6482 59.1683 27.927C59.2994 27.2059 59.4306 26.5176 59.5617 25.862C59.7256 25.2065 59.9058 24.6164 60.1025 24.092C60.2992 23.5675 60.5122 23.1906 60.7417 22.9611C61.0039 22.6989 61.3481 22.535 61.7742 22.4695C62.2331 22.3711 62.6428 22.322 63.0034 22.322C63.7573 22.322 64.3637 22.5186 64.8226 22.912C65.2815 23.3053 65.6256 23.8462 65.8551 24.5345C66.1173 25.1901 66.2812 25.9604 66.3468 26.8454C66.4451 27.6976 66.4943 28.6154 66.4943 29.5987C66.4943 31.1065 66.4451 32.7455 66.3468 34.5155C66.2484 36.2527 66.0354 38.0064 65.7076 39.7764C65.4126 41.5464 64.9701 43.2673 64.3801 44.939C63.8228 46.6107 63.0689 48.1348 62.1184 49.5115C62.1511 49.9704 62.2003 50.5113 62.2659 51.1341C62.3642 51.7241 62.4953 52.2813 62.6592 52.8057C62.8231 53.3302 63.0362 53.7727 63.2984 54.1333C63.5606 54.4938 63.9048 54.6741 64.3309 54.6741C64.7242 54.6741 65.0356 54.5922 65.2651 54.4283C65.4945 54.2316 65.6912 54.0185 65.8551 53.7891C66.0518 53.5596 66.232 53.363 66.3959 53.1991C66.5926 53.0024 66.8384 52.9041 67.1334 52.9041C67.4612 52.9041 67.6743 53.0024 67.7726 53.1991C67.9037 53.3958 67.9693 53.6252 67.9693 53.8874ZM64.2817 30.7788C64.2817 30.451 64.2653 30.0576 64.2326 29.5987C64.2326 29.1398 64.1834 28.6973 64.0851 28.2712C64.0195 27.8123 63.9212 27.4354 63.7901 27.1404C63.6589 26.8126 63.4787 26.6487 63.2492 26.6487C62.9214 26.6487 62.6592 27.1076 62.4625 28.0254C62.2659 28.9432 62.102 30.156 61.9709 31.6638C61.8725 33.1388 61.7906 34.8269 61.725 36.728C61.6922 38.5964 61.6759 40.4975 61.6759 42.4314C61.6759 42.9887 61.6759 43.5787 61.6759 44.2015C61.6759 44.7915 61.7086 45.3159 61.7742 45.7748C62.8559 43.1853 63.5442 40.6778 63.8392 38.2522C64.1342 35.8266 64.2817 33.3355 64.2817 30.7788Z" fill="#0E8BFF"/>
<path d="M79.6316 52.2649C79.6316 53.0516 79.3693 53.658 78.8449 54.0841C78.3204 54.5102 77.714 54.8216 77.0257 55.0183C76.3701 55.2149 75.6982 55.3297 75.0098 55.3624C74.3543 55.428 73.879 55.4608 73.584 55.4608C73.1251 55.4608 72.5515 55.4116 71.8631 55.3133C71.2075 55.2149 70.552 55.0674 69.8964 54.8708C69.2736 54.6413 68.7328 54.3299 68.2739 53.9366C67.8478 53.5433 67.6347 53.0516 67.6347 52.4616C67.6347 52.101 67.7658 51.8552 68.0281 51.7241C68.3231 51.5602 68.6017 51.4782 68.8639 51.4782C69.2245 51.4782 69.5686 51.6093 69.8964 51.8716C70.257 52.1338 70.6175 52.4124 70.9781 52.7074C71.3714 53.0024 71.7976 53.281 72.2565 53.5433C72.7153 53.8055 73.2398 53.9366 73.8298 53.9366C74.092 53.9366 74.4362 53.8546 74.8623 53.6908C75.3212 53.4941 75.5507 53.1663 75.5507 52.7074C75.5507 52.2485 75.354 51.806 74.9607 51.3799C74.6001 50.9538 74.1248 50.5113 73.5348 50.0524C72.9776 49.5935 72.3712 49.1182 71.7156 48.6265C71.06 48.1348 70.4373 47.6104 69.8473 47.0532C69.29 46.4631 68.8147 45.824 68.4214 45.1356C68.0608 44.4473 67.8806 43.6934 67.8806 42.8739C67.8806 41.7267 68.2411 40.7597 68.9622 39.9731C69.7161 39.1864 70.5848 38.5636 71.5681 38.1047C72.5842 37.6458 73.6167 37.318 74.6656 37.1213C75.7146 36.9247 76.534 36.8263 77.124 36.8263C77.6813 36.8263 78.2385 36.9411 78.7957 37.1705C79.3529 37.4 79.6316 37.8425 79.6316 38.498C79.6316 38.6947 79.5824 38.9897 79.4841 39.383C79.4185 39.7436 79.2874 40.1042 79.0907 40.4647C78.9268 40.8253 78.6974 41.1531 78.4024 41.4481C78.1074 41.7103 77.7304 41.8414 77.2715 41.8414C77.1404 41.8414 77.0093 41.7922 76.8782 41.6939C76.7471 41.5628 76.5996 41.4317 76.4357 41.3006C76.2718 41.1367 76.0915 41.0056 75.8948 40.9072C75.7309 40.7761 75.5343 40.7106 75.3048 40.7106C74.1576 40.7106 73.3545 41.0547 72.8956 41.7431C72.4367 42.3986 72.2073 43.1034 72.2073 43.8573C72.2073 44.5128 72.5842 45.2012 73.3381 45.9223C74.1248 46.6434 74.977 47.3645 75.8948 48.0857C76.8454 48.8068 77.6976 49.5279 78.4515 50.249C79.2382 50.9374 79.6316 51.6093 79.6316 52.2649Z" fill="#0E8BFF"/>
<path d="M107.169 32.254C107.169 33.1718 106.907 34.1879 106.382 35.3024C105.891 36.384 105.219 37.4329 104.366 38.4491C103.547 39.4652 102.613 40.3994 101.564 41.2516C100.515 42.0711 99.4661 42.6775 98.4172 43.0708C99.3022 43.333 100.122 43.6608 100.876 44.0541C101.662 44.4147 102.433 44.9064 103.186 45.5292C103.383 45.6931 103.596 46.0044 103.826 46.4633C104.088 46.8895 104.317 47.3647 104.514 47.8892C104.743 48.3809 104.924 48.8725 105.055 49.3642C105.186 49.8559 105.251 50.2492 105.251 50.5442C105.251 51.462 104.858 52.2815 104.071 53.0026C103.318 53.6909 102.449 54.2646 101.466 54.7235C100.482 55.1496 99.5153 55.4774 98.5647 55.7068C97.6469 55.9363 97.0078 56.051 96.6472 56.051H93.4513C93.1235 56.051 92.6155 55.9035 91.9271 55.6085C91.2716 55.3463 90.5832 55.0349 89.8621 54.6743C89.1738 54.281 88.551 53.904 87.9937 53.5434C87.4365 53.1829 87.0923 52.9207 86.9612 52.7568C87.0596 52.5601 87.1415 52.134 87.2071 51.4784C87.2726 50.7901 87.3218 49.9542 87.3546 48.9709C87.3873 47.9548 87.4037 46.8403 87.4037 45.6275C87.4365 44.3819 87.4529 43.12 87.4529 41.8416C87.4529 40.5633 87.4365 39.416 87.4037 38.3999C87.4037 37.351 87.4037 36.384 87.4037 35.499C87.4037 34.5812 87.3873 33.7126 87.3546 32.8931C87.3546 32.0409 87.3546 31.1723 87.3546 30.2873C87.3546 29.5006 87.4201 28.9598 87.5512 28.6648C87.7151 28.3698 87.7807 28.2222 87.7479 28.2222C87.2234 28.2222 86.4204 28.4189 85.3387 28.8123C84.257 29.2056 83.1753 29.6973 82.0936 30.2873C81.0447 30.8773 80.127 31.5329 79.3403 32.254C78.5208 32.9423 78.1111 33.5979 78.1111 34.2207C78.1111 34.9746 78.193 35.5974 78.3569 36.089C78.5208 36.5807 78.6028 36.8593 78.6028 36.9249C78.6028 37.4821 78.488 37.9574 78.2586 38.3507C78.0291 38.7113 77.6686 38.8916 77.1769 38.8916C76.7836 38.8916 76.4722 38.7605 76.2427 38.4982C76.0133 38.2032 75.8494 37.8918 75.7511 37.564C75.6199 37.2035 75.538 36.8593 75.5052 36.5315C75.4724 36.2038 75.4561 35.9907 75.4561 35.8924C75.4561 34.614 75.833 33.4504 76.5869 32.4015C77.3408 31.3526 78.3242 30.4348 79.5369 29.6481C80.7497 28.8286 82.1264 28.1403 83.667 27.5831C85.2404 26.9931 86.8465 26.5178 88.4854 26.1572C90.1243 25.7639 91.7141 25.4853 93.2546 25.3214C94.828 25.1247 96.2211 25.0264 97.4339 25.0264H97.8272C99.3022 25.0591 100.679 25.3542 101.957 25.9114C103.268 26.4358 104.35 27.2389 105.202 28.3206C105.268 28.3861 105.301 28.4353 105.301 28.4681C105.333 28.5009 105.366 28.5336 105.399 28.5664C105.825 29.0581 106.153 29.4514 106.382 29.7464C106.612 30.0087 106.776 30.2709 106.874 30.5331C107.005 30.7626 107.087 31.0084 107.12 31.2706C107.153 31.5329 107.169 31.8606 107.169 32.254ZM103.383 31.2706C103.383 29.8284 102.678 28.8614 101.269 28.3697C99.8595 27.8453 97.7944 27.5831 95.0738 27.5831H93.4513C93.0252 27.5831 92.5827 27.5831 92.1238 27.5831C91.6977 27.5831 91.2552 27.6159 90.7963 27.6814C90.8618 27.7797 90.9438 27.8781 91.0421 27.9764C91.1732 28.0747 91.288 28.2386 91.3863 28.4681C91.4846 28.6648 91.5666 28.9761 91.6321 29.4023C91.6977 29.7956 91.7305 30.3528 91.7305 31.074V40.7599C91.7305 41.0222 91.796 41.2024 91.9271 41.3008C92.091 41.3663 92.6319 41.3991 93.5496 41.3991C94.3691 41.3991 95.3361 41.1205 96.4505 40.5633C97.5978 39.9733 98.6794 39.203 99.6956 38.2524C100.712 37.3018 101.58 36.2201 102.301 35.0073C103.023 33.7946 103.383 32.549 103.383 31.2706ZM101.171 48.9709C101.171 48.4792 100.925 47.9548 100.433 47.3975C99.9414 46.8403 99.3678 46.3158 98.7122 45.8242C98.0567 45.3325 97.4175 44.9392 96.7947 44.6442C96.1719 44.3164 95.713 44.1525 95.418 44.1525C94.6641 44.1525 93.9266 44.2016 93.2055 44.3C92.4844 44.3983 92.091 44.4803 92.0255 44.5458C91.9927 44.5786 91.9599 44.7589 91.9271 45.0867C91.8943 45.4144 91.8616 45.8406 91.8288 46.365C91.796 46.8567 91.7632 47.3975 91.7305 47.9875C91.7305 48.5775 91.7305 49.1512 91.7305 49.7084C91.7305 50.0362 91.7632 50.4131 91.8288 50.8392C91.8943 51.2326 92.0255 51.6259 92.2221 52.0193C92.4188 52.3798 92.681 52.6912 93.0088 52.9534C93.3694 53.2157 93.8283 53.3468 94.3855 53.3468L95.3688 53.2484C95.7294 53.2484 96.2211 53.1665 96.8439 53.0026C97.4994 52.8059 98.1386 52.5273 98.7614 52.1668C99.417 51.8062 99.9742 51.3637 100.433 50.8392C100.925 50.282 101.171 49.6592 101.171 48.9709Z" fill="#136CD5"/>
<path d="M127.275 49.9542C127.209 50.4131 127.045 50.954 126.783 51.5768C126.521 52.1995 126.177 52.8059 125.75 53.3959C125.357 53.9532 124.882 54.4285 124.325 54.8218C123.8 55.2151 123.21 55.4118 122.555 55.4118C121.571 55.4118 120.703 55.0349 119.949 54.281C119.228 53.5271 118.785 52.4618 118.621 51.0851C118.424 51.6095 118.195 52.2159 117.933 52.9043C117.671 53.5926 117.343 54.2318 116.949 54.8218C116.556 55.4118 116.097 55.9035 115.573 56.2968C115.081 56.7229 114.491 56.936 113.803 56.936C113.606 56.936 113.459 56.9196 113.36 56.8868C113.262 56.854 113.147 56.8049 113.016 56.7393C112.918 56.7065 112.787 56.6738 112.623 56.641C112.492 56.6082 112.295 56.5918 112.033 56.5918C111.246 56.5918 110.574 56.3296 110.017 55.8051C109.492 55.3135 109.066 54.6743 108.739 53.8876C108.411 53.1009 108.165 52.2487 108.001 51.3309C107.87 50.3803 107.804 49.4953 107.804 48.6759C107.804 46.7092 107.903 44.8408 108.099 43.0708C108.329 41.3008 108.689 39.7438 109.181 38.3999C109.673 37.0232 110.312 35.9415 111.099 35.1548C111.885 34.3354 112.836 33.9257 113.95 33.9257C114.606 33.9257 115.098 33.9912 115.425 34.1223C115.786 34.2207 116.114 34.3518 116.409 34.5157C116.704 34.6468 117.015 34.7943 117.343 34.9582C117.703 35.1221 118.195 35.2532 118.818 35.3515C119.506 35.7449 119.981 36.2201 120.244 36.7774C120.539 37.3018 120.719 37.8754 120.785 38.4982C120.883 39.121 120.916 39.7766 120.883 40.4649C120.85 41.1205 120.883 41.7761 120.981 42.4316C120.981 42.4644 121.047 42.5136 121.178 42.5791C121.342 42.6447 121.522 42.7266 121.719 42.825C121.915 42.8905 122.079 43.0052 122.21 43.1691C122.374 43.3002 122.456 43.4805 122.456 43.71V43.9066C122.128 44.7589 121.932 45.5128 121.866 46.1683C121.801 46.8239 121.768 47.6106 121.768 48.5284C121.768 48.9873 121.784 49.4953 121.817 50.0526C121.883 50.577 121.965 51.0851 122.063 51.5768C122.194 52.0356 122.374 52.429 122.604 52.7568C122.833 53.0518 123.128 53.1993 123.489 53.1993C123.882 53.1993 124.226 53.0026 124.521 52.6093C124.849 52.2159 125.111 51.7734 125.308 51.2817C125.537 50.7573 125.718 50.2328 125.849 49.7084C126.013 49.1839 126.111 48.7906 126.144 48.5284C126.209 48.135 126.373 47.9384 126.635 47.9384C126.799 47.9384 126.947 48.0367 127.078 48.2334C127.242 48.3973 127.324 48.7087 127.324 49.1675C127.324 49.2987 127.324 49.4298 127.324 49.5609C127.324 49.6592 127.307 49.7903 127.275 49.9542ZM118.179 41.9891C118.179 41.6286 118.146 41.2024 118.08 40.7108C118.015 40.2191 117.9 39.7602 117.736 39.3341C117.572 38.908 117.326 38.5474 116.999 38.2524C116.671 37.9574 116.228 37.8099 115.671 37.8099C114.753 37.8099 113.999 38.236 113.409 39.0882C112.852 39.9077 112.41 40.891 112.082 42.0383C111.754 43.1527 111.541 44.3164 111.443 45.5292C111.344 46.7092 111.295 47.6434 111.295 48.3317C111.295 48.8562 111.312 49.4953 111.344 50.2492C111.41 50.9704 111.508 51.6587 111.639 52.3143C111.771 52.9698 111.951 53.5271 112.18 53.986C112.442 54.4449 112.77 54.6743 113.164 54.6743C114.114 54.6743 114.835 54.3137 115.327 53.5926C115.851 52.8387 116.245 51.9209 116.507 50.8392C116.769 49.7248 116.949 48.5448 117.048 47.2992C117.179 46.0208 117.294 44.8572 117.392 43.8083C117.458 43.2511 117.605 42.9069 117.834 42.7758C118.064 42.6119 118.179 42.4972 118.179 42.4316V41.9891Z" fill="#136CD5"/>
<path fill-rule="evenodd" clip-rule="evenodd" d="M153.03 9.98512C153.411 10.1244 154.075 10.4084 154.505 10.6162L155.287 10.9943L151.114 12.2494C148.819 12.9398 146.43 13.7241 145.804 13.9924C140.617 16.2168 137.982 19.1936 135.846 25.2421C135.241 26.9557 135.207 27.2365 135.719 26.2811C137.415 23.1204 140.261 20.6515 143.337 19.673C144.376 19.3423 145.674 19.1268 146.792 19.0992C147.871 19.0728 150.608 19.6891 151.669 20.1975C154.557 21.5826 156.983 23.8574 158.72 26.8119C159.384 27.9406 160.412 30.1613 160.306 30.2382C160.287 30.2521 158.957 29.5237 157.352 28.6194C154.157 26.8199 152.799 26.1265 151.189 25.474C150.11 25.0367 147.896 24.5072 146.765 24.4158C144.233 24.2112 141.288 25.0514 138.246 26.8462L137.735 27.1484L138.514 27.3176C141.152 27.8904 143.036 30.9346 142.965 34.5093C142.932 36.1396 142.933 36.1399 141.69 33.8779C140.486 31.686 139.627 30.537 138.734 29.9225C138.005 29.4212 136.947 29.0286 136.077 28.9368L135.368 28.8619L135.76 29.9159C137.911 35.7031 139.134 44.0869 139.21 53.5682C139.245 57.952 139.115 59.375 138.03 66.4638C137.781 68.0956 137.433 69.8421 137.334 70.5055L137.041 72.2483L136.726 73.2982L136.054 74.0122L134.962 72.3115L134.248 71.6396L133.198 71.3247L131.812 71.3668L129.47 71.7847L129.366 70.7476L130.321 67.9443L131.906 63.0413L133.48 57.7917C135.194 51.9419 135.126 44.5641 135.064 41.445C134.927 34.4187 135.012 39.7127 134.921 34.2212C134.736 31.8415 134.362 29.4078 134.153 29.2212C134.065 29.143 133.751 28.958 133.455 28.8101L132.917 28.5411L132.23 28.8999C131.189 29.4434 130.053 30.3692 129.491 31.1313C128.615 32.3195 126.924 32.7785 126.298 35.7902L126.298 36.1458C126.031 34.6805 126.031 35.1195 126.298 33.2707C126.521 31.8991 126.812 31.1624 127.545 30.1056C128.135 29.2541 129.553 28.1738 130.35 27.9679C130.635 27.8946 130.875 27.7955 130.885 27.7478C130.934 27.5184 127.701 26.6406 126.321 26.5088C123.905 26.2778 121.861 26.6468 119.523 27.7361C117.436 28.7085 115.807 29.8331 111.486 33.2847C110.137 34.3628 109.022 35.2275 109.01 35.2061C108.935 35.0765 109.854 32.4514 110.355 31.3642C112.992 25.6431 117.896 21.7319 122.867 21.3856C127.106 21.0904 131.177 23.3107 133.433 27.1476C133.756 27.6984 133.986 28.0005 133.943 27.8191C133.84 27.3817 132.179 24.7844 131.159 23.4663C129.632 21.4909 128.207 20.2108 126.38 19.1727C125.667 18.7677 125.169 18.593 123.652 18.2154C120.842 17.5159 119.356 17.5064 113.276 18.1491C111.503 18.3364 110.042 18.4712 110.029 18.4486C110.016 18.426 110.398 18.0333 110.878 17.5762C115.101 13.5543 120.6 11.8293 125.252 13.0675C129.056 14.0801 131.892 16.7767 133.371 20.7876L133.687 21.6421L133.769 20.8937C133.939 19.3391 134.958 16.8002 136.082 15.1318C138.531 11.4959 142.867 9.19529 147.434 9.10848C149.27 9.07371 151.483 9.42036 153.03 9.98512Z" fill="#136CD5"/>
<circle cx="133.023" cy="72.1671" r="3.95146" transform="rotate(-1.74014 133.023 72.1671)" fill="#136CD5"/>
<path d="M136.566 50.0453C135.911 49.3898 136.275 51.6913 135.848 50.3473C135.75 50.544 135.413 50.2677 135.249 50.9233C135.118 51.5789 135.544 51.0802 135.249 51.8013C134.954 52.4896 133.117 55.1166 132.626 55.7066C132.167 56.2638 131.577 56.5424 130.856 56.5424C128.758 56.5424 127.316 55.936 126.529 54.7232C125.742 53.5105 125.283 51.724 125.152 49.364V37.5147C125.218 37.2852 125.251 37.1213 125.251 37.023C125.283 36.9247 125.431 36.8755 125.693 36.8755C125.857 36.8755 126.136 36.9083 126.529 36.9738C126.955 37.0394 127.381 37.1377 127.807 37.2688C128.233 37.3672 128.61 37.5147 128.938 37.7113C129.299 37.908 129.479 38.1375 129.479 38.3997V47.1023C129.479 47.6923 129.479 48.3479 129.479 49.069C129.512 49.7901 129.561 50.4621 129.627 51.0849C129.725 51.6749 129.872 52.1829 130.069 52.609C130.266 53.0024 130.544 53.1991 130.905 53.1991C131.855 53.1991 132.969 52.3855 133.493 50.4843C134.018 48.5504 135.184 45.3955 135.249 41.2654C136.057 41.2795 136.327 41.6272 135.688 41.2654C136.327 41.2654 135.848 40.8253 135.848 40.4647C137.531 40.9037 135.389 39.575 135.848 39.5095C136.34 39.4439 136.173 39.0705 136.566 39.0705C137.55 39.0705 136.107 39.3128 136.566 39.5095C137.025 39.7061 137.005 39.5095 136.566 40.4647C136.501 41.0547 137.071 41.3439 137.005 41.7044C136.972 42.0322 137.038 41.8484 137.005 42.1434C135.848 42.4276 137.038 43.0378 137.005 43.3656C137.005 43.6606 137.005 44.6264 137.005 45.2164C137.005 45.9703 136.501 47.0309 136.566 47.8503C136.402 47.162 136.632 48.6698 136.566 47.8503C136.337 47.3915 136.73 48.5387 136.566 47.8503C136.173 47.8503 136.828 48.2765 136.566 47.8503C136.927 47.8503 135.931 48.925 136.127 48.7283C135.963 48.9906 136.324 48.4989 136.127 48.7283C135.963 48.925 136.291 48.4661 136.127 48.7283C135.832 48.7283 136.291 48.4989 136.127 48.7283C135.996 48.5317 136.389 48.7283 136.127 48.7283C136.127 48.5644 136.258 48.8922 136.127 48.7283C136.127 49.3511 136.455 48.3022 136.127 48.7283C135.832 49.1545 136.586 48.4661 136.127 48.7283C135.701 48.9906 136.586 48.5972 136.127 48.7283C135.668 48.8267 136.422 48.7283 136.127 48.7283C135.57 48.7283 136.521 48.8595 136.127 48.7283C135.734 48.5972 136.521 48.9906 136.127 48.7283L136.566 50.0453Z" fill="#136CD5"/>
</svg>
