<svg width="24" height="24" viewBox="0 0 24 24" fill="none" xmlns="http://www.w3.org/2000/svg">
<g clip-path="url(#clip0_5520_2899)">
<path d="M2.05957 1.09668H8.71582C9.37599 1.12977 10.0036 1.38845 10.4961 1.82812L10.5283 1.86621L10.5635 1.90137L22.6104 13.7422L22.6455 13.7754C22.7542 13.8723 22.8424 13.9907 22.9033 14.123C22.9641 14.2552 22.997 14.3985 23 14.5439C23.003 14.6896 22.9754 14.835 22.9199 14.9697C22.8645 15.1042 22.7822 15.226 22.6777 15.3271L22.6709 15.333L22.665 15.3389L15.4092 22.6055C15.3074 22.7037 15.1866 22.7811 15.0547 22.832C14.9231 22.8828 14.7826 22.9066 14.6416 22.9023H14.6094C14.3378 22.9026 14.0768 22.798 13.8799 22.6113L1.77637 10.6729C1.31597 10.1817 1.04159 9.54564 1 8.87402V2.15625C1 1.87531 1.11189 1.60588 1.31055 1.40723C1.5092 1.20857 1.77863 1.09668 2.05957 1.09668ZM6.71484 3.84961C6.22592 3.74392 5.71686 3.78467 5.25098 3.9668C4.78502 4.14902 4.3823 4.46461 4.09473 4.87402C3.80731 5.28336 3.64713 5.76856 3.63379 6.26855C3.62474 6.60823 3.6839 6.94622 3.80762 7.2627C3.93139 7.57918 4.11741 7.86787 4.35449 8.11133C4.59165 8.35481 4.87531 8.54857 5.18848 8.68066C5.50155 8.8127 5.83796 8.88092 6.17773 8.88086C6.67805 8.88068 7.16812 8.73276 7.58496 8.45605C8.00155 8.17941 8.32711 7.78596 8.52148 7.3252C8.7159 6.8642 8.77054 6.35589 8.67773 5.86426C8.58492 5.37264 8.34908 4.91894 8 4.56055C7.65094 4.20226 7.20377 3.9553 6.71484 3.84961Z" fill="#0E8BFF" stroke="#0E8BFF" stroke-width="2"/>
</g>
<defs>
<clipPath id="clip0_5520_2899">
<rect width="24" height="24" fill="white"/>
</clipPath>
</defs>
</svg>
